<?xml version="1.0" encoding="UTF-8" standalone="no"?>
<svg
   xmlns:dc="http://purl.org/dc/elements/1.1/"
   xmlns:cc="http://creativecommons.org/ns#"
   xmlns:rdf="http://www.w3.org/1999/02/22-rdf-syntax-ns#"
   xmlns:svg="http://www.w3.org/2000/svg"
   xmlns="http://www.w3.org/2000/svg"
   xmlns:sodipodi="http://sodipodi.sourceforge.net/DTD/sodipodi-0.dtd"
   xmlns:inkscape="http://www.inkscape.org/namespaces/inkscape"
   viewBox="0 0 100 100"
   role="presentation"
   focusable="false"
   aria-hidden="true"
   version="1.1"
   id="svg10"
   sodipodi:docname="private-endpoint.svg"
   width="100"
   height="100"
   inkscape:version="0.92.4 (5da689c313, 2019-01-14)">
  <metadata
     id="metadata16">
    <rdf:RDF>
      <cc:Work
         rdf:about="">
        <dc:format>image/svg+xml</dc:format>
        <dc:type
           rdf:resource="http://purl.org/dc/dcmitype/StillImage" />
        <dc:title />
      </cc:Work>
    </rdf:RDF>
  </metadata>
  <defs
     id="defs14" />
  <sodipodi:namedview
     pagecolor="#ffffff"
     bordercolor="#666666"
     borderopacity="1"
     objecttolerance="10"
     gridtolerance="10"
     guidetolerance="10"
     inkscape:pageopacity="0"
     inkscape:pageshadow="2"
     inkscape:window-width="1920"
     inkscape:window-height="1017"
     id="namedview12"
     showgrid="false"
     inkscape:zoom="4.72"
     inkscape:cx="25.635594"
     inkscape:cy="25"
     inkscape:window-x="-8"
     inkscape:window-y="-8"
     inkscape:window-maximized="1"
     inkscape:current-layer="svg10" />
  <g
     id="g8"
     transform="matrix(1.9671864,0,0,1.9671864,-0.16319098,1.7055436)">
    <path
       d="m 24,7.1 h 3 v 26.8 h -3 z"
       id="path2"
       inkscape:connector-curvature="0"
       style="fill:#7a7a7a" />
    <path
       d="m 30.9,33.5 c 0,2.931 -2.469,5.4 -5.4,5.4 -2.931,0 -5.4,-2.469 -5.4,-5.4 0,-2.931 2.469,-5.4 5.4,-5.4 2.931,0 5.4,2.469 5.4,5.4 z"
       id="path4"
       inkscape:connector-curvature="0"
       style="fill:#57a300" />
    <path
       d="m 29.9,6.5 c 0,2.389 -2.011,4.4 -4.4,4.4 -2.389,0 -4.4,-2.011 -4.4,-4.4 0,-2.389 2.011,-4.4 4.4,-4.4 2.389,0 4.4,2.011 4.4,4.4 z m 6.125,40.496 a 1.38,1.38 0 0 1 -0.984,-0.398 1.481,1.481 0 0 1 0,-2.091 L 45.605,33.941 a 0.856,0.856 0 0 0 0.001,-1.215 L 35.224,22.53 a 1.29,1.29 0 0 1 -0.469,-0.945 c -0.02,-0.41 0.149,-0.829 0.467,-1.149 a 1.425,1.425 0 0 1 1.156,-0.432 c 0.37,0 0.722,0.154 1,0.431 l 9.916,9.641 2.21,2.209 c 0.447,0.558 0.604,1.487 0,2.093 l -2.389,2.389 -9.923,9.831 A 1.456,1.456 0 0 1 36.178,47 h 0.003 z m -21.196,0 A 1.45,1.45 0 0 1 13.817,46.598 L 3.712,36.861 1.495,34.364 C 0.899,33.77 1.045,32.865 1.483,32.312 l 2.229,-2.232 9.924,-9.648 a 1.417,1.417 0 0 1 1.151,-0.428 c 0.367,0 0.717,0.154 0.998,0.431 0.317,0.318 0.487,0.737 0.469,1.149 a 1.34,1.34 0 0 1 -0.49,0.965 L 5.589,32.726 a 0.853,0.853 0 0 0 -0.001,1.215 l 10.384,10.564 a 1.487,1.487 0 0 1 -10e-4,2.091 C 15.71,46.856 15.36,46.999 14.984,47 Z"
       id="path6"
       inkscape:connector-curvature="0"
       style="fill:#3999c6" />
  </g>
</svg>
