<?xml version="1.0" encoding="UTF-8" standalone="no"?>
<svg
   xmlns:dc="http://purl.org/dc/elements/1.1/"
   xmlns:cc="http://creativecommons.org/ns#"
   xmlns:rdf="http://www.w3.org/1999/02/22-rdf-syntax-ns#"
   xmlns:svg="http://www.w3.org/2000/svg"
   xmlns="http://www.w3.org/2000/svg"
   xmlns:sodipodi="http://sodipodi.sourceforge.net/DTD/sodipodi-0.dtd"
   xmlns:inkscape="http://www.inkscape.org/namespaces/inkscape"
   viewBox="0 0 100 100"
   data-islogo="true"
   class=""
   role="presentation"
   focusable="false"
   id="FxSymbol0-02d"
   data-type="165"
   version="1.1"
   sodipodi:docname="sql-database.svg"
   width="100"
   height="100"
   inkscape:version="0.92.4 (5da689c313, 2019-01-14)">
  <metadata
     id="metadata41">
    <rdf:RDF>
      <cc:Work
         rdf:about="">
        <dc:format>image/svg+xml</dc:format>
        <dc:type
           rdf:resource="http://purl.org/dc/dcmitype/StillImage" />
        <dc:title></dc:title>
      </cc:Work>
    </rdf:RDF>
  </metadata>
  <sodipodi:namedview
     pagecolor="#ffffff"
     bordercolor="#666666"
     borderopacity="1"
     objecttolerance="10"
     gridtolerance="10"
     guidetolerance="10"
     inkscape:pageopacity="0"
     inkscape:pageshadow="2"
     inkscape:window-width="1920"
     inkscape:window-height="1017"
     id="namedview39"
     showgrid="false"
     inkscape:zoom="4.6354778"
     inkscape:cx="-38.116184"
     inkscape:cy="32.974873"
     inkscape:window-x="-8"
     inkscape:window-y="-8"
     inkscape:window-maximized="1"
     inkscape:current-layer="FxSymbol0-02d" />
  <defs
     id="defs24">
    <linearGradient
       id="2cd58c85-8c17-4518-a234-881b046986cf"
       x1="2.5899999"
       y1="10.16"
       x2="15.41"
       y2="10.16"
       gradientUnits="userSpaceOnUse">
      <stop
         offset="0"
         stop-color="#005ba1"
         id="stop2" />
      <stop
         offset=".07"
         stop-color="#0060a9"
         id="stop4" />
      <stop
         offset=".36"
         stop-color="#0071c8"
         id="stop6" />
      <stop
         offset=".52"
         stop-color="#0078d4"
         id="stop8" />
      <stop
         offset=".64"
         stop-color="#0074cd"
         id="stop10" />
      <stop
         offset=".82"
         stop-color="#006abb"
         id="stop12" />
      <stop
         offset="1"
         stop-color="#005ba1"
         id="stop14" />
    </linearGradient>
    <radialGradient
       id="aec9219a-e0d6-4db5-b9da-e04bccb38492"
       cx="9.3599997"
       cy="10.57"
       r="7.0700002"
       gradientUnits="userSpaceOnUse">
      <stop
         offset="0"
         stop-color="#f2f2f2"
         id="stop17" />
      <stop
         offset=".58"
         stop-color="#eee"
         id="stop19" />
      <stop
         offset="1"
         stop-color="#e6e6e6"
         id="stop21" />
    </radialGradient>
  </defs>
  <g
     id="g36"
     transform="matrix(5.6470588,0,0,5.6470588,-0.8235292,-0.8235292)">
    <path
       d="m 9,5.14 c -3.54,0 -6.41,-1 -6.41,-2.32 v 12.36 c 0,1.27 2.82,2.3 6.32,2.32 H 9 c 3.54,0 6.41,-1 6.41,-2.32 V 2.82 c 0,1.29 -2.87,2.32 -6.41,2.32 z"
       id="path26"
       inkscape:connector-curvature="0"
       style="fill:url(#2cd58c85-8c17-4518-a234-881b046986cf)" />
    <path
       d="M 15.41,2.82 C 15.41,4.11 12.54,5.14 9,5.14 5.46,5.14 2.59,4.14 2.59,2.82 2.59,1.5 5.46,0.5 9,0.5 c 3.54,0 6.41,1 6.41,2.32"
       id="path28"
       inkscape:connector-curvature="0"
       style="fill:#e8e8e8" />
    <path
       d="M 13.92,2.63 C 13.92,3.45 11.71,4.11 9,4.11 6.29,4.11 4.08,3.45 4.08,2.63 4.08,1.81 6.29,1.16 9,1.16 c 2.71,0 4.92,0.66 4.92,1.47"
       id="path30"
       inkscape:connector-curvature="0"
       style="fill:#50e6ff" />
    <path
       d="M 9,3 A 11.55,11.55 0 0 0 5.11,3.57 11.42,11.42 0 0 0 9,4.11 11.15,11.15 0 0 0 12.89,3.53 11.84,11.84 0 0 0 9,3 Z"
       id="path32"
       inkscape:connector-curvature="0"
       style="fill:#198ab3" />
    <path
       d="M 12.9,11.4 V 8 H 12 v 4.13 h 2.46 V 11.4 Z M 5.76,9.73 A 1.83,1.83 0 0 1 5.25,9.42 0.44,0.44 0 0 1 5.13,9.1 0.34,0.34 0 0 1 5.28,8.8 0.68,0.68 0 0 1 5.7,8.68 1.62,1.62 0 0 1 6.7,8.97 V 8.11 A 2.58,2.58 0 0 0 5.7,7.95 1.64,1.64 0 0 0 4.61,8.29 1.08,1.08 0 0 0 4.19,9.18 c 0,0.51 0.32,0.91 1,1.21 A 2.88,2.88 0 0 1 5.81,10.75 0.42,0.42 0 0 1 5.96,11.07 0.38,0.38 0 0 1 5.8,11.38 0.81,0.81 0 0 1 5.35,11.49 1.66,1.66 0 0 1 4.26,11.07 V 12 A 2.17,2.17 0 0 0 5.33,12.24 1.88,1.88 0 0 0 6.51,11.91 1.08,1.08 0 0 0 6.84,11 1.05,1.05 0 0 0 6.59,10.3 2.42,2.42 0 0 0 5.76,9.73 Z M 11,11.32 A 2.34,2.34 0 0 0 11.33,10.06 2.32,2.32 0 0 0 11,9 1.81,1.81 0 0 0 10.3,8.25 2,2 0 0 0 9.3,7.99 2.11,2.11 0 0 0 8.22,8.26 1.86,1.86 0 0 0 7.49,9 a 2.46,2.46 0 0 0 -0.26,1.14 2.26,2.26 0 0 0 0.24,1 1.76,1.76 0 0 0 0.69,0.74 2.06,2.06 0 0 0 1,0.3 l 0.86,1 h 1.21 L 10,12.08 a 1.79,1.79 0 0 0 1,-0.76 z m -1,-0.25 a 0.94,0.94 0 0 1 -0.76,0.35 0.92,0.92 0 0 1 -0.76,-0.36 1.52,1.52 0 0 1 -0.29,-1 1.53,1.53 0 0 1 0.29,-1 1,1 0 0 1 0.78,-0.37 0.87,0.87 0 0 1 0.75,0.37 1.62,1.62 0 0 1 0.27,1 1.46,1.46 0 0 1 -0.28,1.01 z"
       id="path34"
       inkscape:connector-curvature="0"
       style="fill:url(#aec9219a-e0d6-4db5-b9da-e04bccb38492)" />
  </g>
</svg>
