<svg width="387" height="313" xmlns="http://www.w3.org/2000/svg" xmlns:xlink="http://www.w3.org/1999/xlink" overflow="hidden"><defs><clipPath id="clip0"><path d="M480 323 867 323 867 636 480 636Z" fill-rule="evenodd" clip-rule="evenodd"/></clipPath><clipPath id="clip1"><path d="M721 412 779 412 779 470 721 470Z" fill-rule="evenodd" clip-rule="evenodd"/></clipPath><clipPath id="clip2"><path d="M721 412 779 412 779 470 721 470Z" fill-rule="evenodd" clip-rule="evenodd"/></clipPath><clipPath id="clip3"><path d="M721 412 779 412 779 470 721 470Z" fill-rule="evenodd" clip-rule="evenodd"/></clipPath><radialGradient cx="13428.8" cy="3518.86" r="56.667" gradientUnits="userSpaceOnUse" spreadMethod="pad" id="fill4" gradientTransform="matrix(0.483333 0 0 0.483333 -5740.62 -1259.79)"><stop offset="0" stop-color="#5EA0EF"/><stop offset="0.183" stop-color="#5EA0EF"/><stop offset="1" stop-color="#0078D4"/></radialGradient><linearGradient x1="735.175" y1="449.004" x2="735.075" y2="436.247" gradientUnits="userSpaceOnUse" spreadMethod="pad" id="fill5"><stop offset="0" stop-color="#CCCCCC"/><stop offset="0.123" stop-color="#D7D7D7"/><stop offset="0.421" stop-color="#EBEBEB"/><stop offset="0.716" stop-color="#F8F8F8"/><stop offset="1" stop-color="#FCFCFC"/></linearGradient><clipPath id="clip6"><path d="M567 415 624 415 624 472 567 472Z" fill-rule="evenodd" clip-rule="evenodd"/></clipPath><clipPath id="clip7"><path d="M567 415 624 415 624 472 567 472Z" fill-rule="evenodd" clip-rule="evenodd"/></clipPath><clipPath id="clip8"><path d="M567 415 624 415 624 472 567 472Z" fill-rule="evenodd" clip-rule="evenodd"/></clipPath><linearGradient x1="575.202" y1="447.173" x2="615.798" y2="447.173" gradientUnits="userSpaceOnUse" spreadMethod="pad" id="fill9"><stop offset="0" stop-color="#005BA1"/><stop offset="0.07" stop-color="#0060A9"/><stop offset="0.36" stop-color="#0071C8"/><stop offset="0.52" stop-color="#0078D4"/><stop offset="0.64" stop-color="#0074CD"/><stop offset="0.82" stop-color="#006ABB"/><stop offset="1" stop-color="#005BA1"/></linearGradient><radialGradient cx="9.36" cy="10.57" r="7.07" gradientUnits="userSpaceOnUse" spreadMethod="pad" id="fill10" gradientTransform="matrix(3.16667 0 0 3.16667 567 415)"><stop offset="0" stop-color="#F2F2F2"/><stop offset="0.58" stop-color="#EEEEEE"/><stop offset="1" stop-color="#E6E6E6"/></radialGradient><clipPath id="clip11"><path d="M576 550 614 550 614 588 576 588Z" fill-rule="evenodd" clip-rule="evenodd"/></clipPath><clipPath id="clip12"><path d="M576 550 614 550 614 588 576 588Z" fill-rule="evenodd" clip-rule="evenodd"/></clipPath><clipPath id="clip13"><path d="M576 550 614 550 614 588 576 588Z" fill-rule="evenodd" clip-rule="evenodd"/></clipPath><clipPath id="clip14"><path d="M487 609 513 609 513 635 487 635Z" fill-rule="evenodd" clip-rule="evenodd"/></clipPath><clipPath id="clip15"><path d="M487 609 513 609 513 635 487 635Z" fill-rule="evenodd" clip-rule="evenodd"/></clipPath><clipPath id="clip16"><path d="M487 609 513 609 513 635 487 635Z" fill-rule="evenodd" clip-rule="evenodd"/></clipPath><linearGradient x1="505.411" y1="623.668" x2="505.406" y2="620.317" gradientUnits="userSpaceOnUse" spreadMethod="pad" id="fill17"><stop offset="0" stop-color="#0078D4"/><stop offset="0.82" stop-color="#5EA0EF"/><stop offset="1" stop-color="#5EA0EF"/></linearGradient><linearGradient x1="500.052" y1="623.676" x2="500.061" y2="620.325" gradientUnits="userSpaceOnUse" spreadMethod="pad" id="fill18"><stop offset="0" stop-color="#0078D4"/><stop offset="0.82" stop-color="#5EA0EF"/><stop offset="1" stop-color="#5EA0EF"/></linearGradient><linearGradient x1="494.707" y1="623.683" x2="494.717" y2="620.332" gradientUnits="userSpaceOnUse" spreadMethod="pad" id="fill19"><stop offset="0" stop-color="#0078D4"/><stop offset="0.82" stop-color="#5EA0EF"/><stop offset="1" stop-color="#5EA0EF"/></linearGradient><clipPath id="clip20"><path d="M518 598 537 598 537 617 518 617Z" fill-rule="evenodd" clip-rule="evenodd"/></clipPath><clipPath id="clip21"><path d="M518 598 537 598 537 617 518 617Z" fill-rule="evenodd" clip-rule="evenodd"/></clipPath><clipPath id="clip22"><path d="M518 598 537 598 537 617 518 617Z" fill-rule="evenodd" clip-rule="evenodd"/></clipPath><clipPath id="clip23"><path d="M696 598 715 598 715 617 696 617Z" fill-rule="evenodd" clip-rule="evenodd"/></clipPath><clipPath id="clip24"><path d="M696 598 715 598 715 617 696 617Z" fill-rule="evenodd" clip-rule="evenodd"/></clipPath><clipPath id="clip25"><path d="M696 598 715 598 715 617 696 617Z" fill-rule="evenodd" clip-rule="evenodd"/></clipPath><clipPath id="clip26"><path d="M731 549 769 549 769 587 731 587Z" fill-rule="evenodd" clip-rule="evenodd"/></clipPath><clipPath id="clip27"><path d="M731 549 769 549 769 587 731 587Z" fill-rule="evenodd" clip-rule="evenodd"/></clipPath><clipPath id="clip28"><path d="M731 549 769 549 769 587 731 587Z" fill-rule="evenodd" clip-rule="evenodd"/></clipPath><linearGradient x1="750.021" y1="583.833" x2="750.021" y2="552.167" gradientUnits="userSpaceOnUse" spreadMethod="pad" id="fill29"><stop offset="0" stop-color="#5E9641"/><stop offset="0.34" stop-color="#6BAA42"/><stop offset="0.67" stop-color="#73B743"/><stop offset="1" stop-color="#76BB43"/></linearGradient></defs><g clip-path="url(#clip0)" transform="translate(-480 -323)"><rect x="481" y="514" width="384" height="106" stroke="#000000" stroke-width="2" stroke-linecap="round" stroke-miterlimit="8" stroke-dasharray="0 4" fill="none"/><rect x="485" y="614" width="29" height="16" fill="#FFFFFF"/><g clip-path="url(#clip1)"><g clip-path="url(#clip2)"><g clip-path="url(#clip3)"><path d="M766.785 462.644C754.831 471.914 737.626 469.738 728.356 457.785 719.086 445.831 721.262 428.626 733.215 419.356L733.493 419.147C745.505 409.954 762.695 412.239 771.889 424.251 781.082 436.263 778.797 453.454 766.785 462.647" fill="url(#fill4)"/><path d="M728.994 446.301C727.892 449.049 726.991 451.875 726.301 454.756 726.91 455.785 727.579 456.776 728.305 457.726 728.864 458.452 729.461 459.148 730.093 459.811 730.873 455.977 732.042 452.233 733.583 448.637 731.854 448.335 730.255 447.521 728.994 446.301ZM732.149 431.688C731.01 428.631 730.264 425.443 729.929 422.198 728.58 423.631 727.392 425.206 726.384 426.896 726.76 429.484 727.372 432.032 728.215 434.507 729.237 433.218 730.6 432.241 732.149 431.688Z" fill="#83B9F9"/><path d="M743.907 439.972C743.907 444.834 739.966 448.775 735.104 448.775 730.242 448.775 726.301 444.834 726.301 439.972 726.301 435.11 730.242 431.169 735.104 431.169 739.966 431.169 743.907 435.11 743.907 439.972Z" fill="url(#fill5)"/><path d="M747.938 456.048C747.938 454.504 748.566 453.027 749.678 451.956 746.715 450.326 743.98 448.314 741.542 445.972 740.264 447.346 738.579 448.274 736.734 448.617 738.172 450.125 739.732 451.512 741.397 452.764 743.459 454.316 745.667 455.664 747.989 456.789 747.957 456.543 747.94 456.296 747.938 456.048ZM768.231 456.731C765.243 456.732 762.265 456.385 759.357 455.697 759.357 455.813 759.377 455.929 759.377 456.048 759.379 457.542 758.793 458.977 757.746 460.043 761.365 460.756 765.057 461.02 768.74 460.826 770.124 459.517 771.367 458.067 772.449 456.499 771.049 456.652 769.64 456.729 768.231 456.731Z" fill="#83B9F9"/><path d="M752.104 428.433C758.052 425.435 764.606 423.837 771.267 423.761 769.869 422.017 768.261 420.453 766.478 419.105 761.272 419.439 756.159 420.646 751.353 422.675 750.296 423.126 749.272 423.642 748.263 424.18 745.82 421.282 743.685 418.137 741.893 414.797 740.7 415.168 739.533 415.619 738.4 416.147 740.255 419.692 742.476 423.032 745.028 426.113 742.556 427.733 740.271 429.622 738.216 431.746 740.01 432.423 741.532 433.668 742.553 435.29 744.446 433.431 746.526 431.772 748.759 430.341 752.416 434.163 756.406 437.651 760.682 440.765 760.979 439.519 761.67 438.402 762.654 437.581 758.896 434.822 755.368 431.763 752.104 428.433Z" fill="#83B9F9"/><path d="M772.765 441.864C772.765 445.218 770.046 447.937 766.691 447.937 763.337 447.937 760.617 445.218 760.617 441.864 760.617 438.509 763.337 435.79 766.691 435.79 770.046 435.79 772.765 438.509 772.765 441.864Z" fill="#F2F2F2"/><path d="M776.896 445.959C776.549 445.781 776.205 445.599 775.862 445.414L775.778 445.363 774.811 444.847 774.634 444.751 773.774 444.271 773.561 444.155 772.556 443.578C772.207 444.765 771.488 445.809 770.503 446.558L771.708 447.248 771.979 447.399C772.349 447.609 772.723 447.815 773.1 448.021L773.21 448.082C774.112 448.576 775.038 449.066 775.987 449.552 776.372 448.377 776.676 447.178 776.899 445.962Z" fill="#83B9F9"/><path d="M743.907 439.972C743.907 444.834 739.966 448.775 735.104 448.775 730.242 448.775 726.301 444.834 726.301 439.972 726.301 435.11 730.242 431.169 735.104 431.169 739.966 431.169 743.907 435.11 743.907 439.972Z" fill="#F2F2F2"/><path d="M759.377 456.048C759.377 459.207 756.816 461.767 753.657 461.767 750.498 461.767 747.938 459.207 747.938 456.048 747.938 452.889 750.498 450.328 753.657 450.328 756.816 450.328 759.377 452.889 759.377 456.048Z" fill="#F2F2F2"/></g></g></g><g clip-path="url(#clip6)"><g clip-path="url(#clip7)"><g clip-path="url(#clip8)"><path d="M595.5 431.277C584.29 431.277 575.202 428.11 575.202 423.93L575.202 463.07C575.202 467.092 584.132 470.353 595.215 470.417L595.5 470.417C606.71 470.417 615.798 467.25 615.798 463.07L615.798 423.93C615.798 428.015 606.71 431.277 595.5 431.277Z" fill="url(#fill9)"/><path d="M615.798 423.93C615.798 428.015 606.71 431.277 595.5 431.277 584.29 431.277 575.202 428.11 575.202 423.93 575.202 419.75 584.29 416.583 595.5 416.583 606.71 416.583 615.798 419.75 615.798 423.93" fill="#E8E8E8"/><path d="M611.08 423.328C611.08 425.925 604.082 428.015 595.5 428.015 586.918 428.015 579.92 425.925 579.92 423.328 579.92 420.732 586.918 418.673 595.5 418.673 604.082 418.673 611.08 420.763 611.08 423.328" fill="#50E6FF"/><path d="M595.5 424.5C591.321 424.393 587.154 425.004 583.182 426.305 587.158 427.582 591.326 428.161 595.5 428.015 599.682 428.138 603.854 427.516 607.818 426.178 603.834 424.937 599.671 424.37 595.5 424.5Z" fill="#198AB3"/><path d="M607.85 451.1 607.85 440.333 605 440.333 605 453.412 612.79 453.412 612.79 451.1ZM585.24 445.812C584.652 445.575 584.106 445.243 583.625 444.83 583.367 444.557 583.23 444.192 583.245 443.817 583.225 443.439 583.406 443.078 583.72 442.867 584.109 442.597 584.577 442.464 585.05 442.487 586.178 442.436 587.291 442.759 588.217 443.405L588.217 440.682C587.205 440.305 586.129 440.133 585.05 440.175 583.808 440.109 582.583 440.491 581.598 441.252 580.728 441.923 580.233 442.971 580.268 444.07 580.268 445.685 581.282 446.952 583.435 447.902 584.134 448.198 584.794 448.581 585.398 449.042 585.698 449.293 585.872 449.664 585.873 450.055 585.873 450.445 585.685 450.811 585.367 451.037 584.936 451.289 584.44 451.41 583.942 451.385 582.668 451.374 581.441 450.902 580.49 450.055L580.49 453C581.536 453.539 582.702 453.801 583.878 453.76 585.206 453.839 586.521 453.471 587.615 452.715 588.398 451.973 588.786 450.905 588.66 449.833 588.675 449.023 588.394 448.234 587.868 447.617 587.128 446.837 586.233 446.222 585.24 445.812ZM601.833 450.847C602.552 449.642 602.915 448.259 602.878 446.857 602.807 445.67 602.448 444.518 601.833 443.5 601.339 442.511 600.569 441.686 599.617 441.125 598.651 440.578 597.559 440.294 596.45 440.302 595.254 440.275 594.073 440.571 593.03 441.157 592.052 441.702 591.251 442.515 590.718 443.5 590.158 444.62 589.875 445.858 589.895 447.11 589.902 448.21 590.162 449.294 590.655 450.277 591.138 451.255 591.898 452.07 592.84 452.62 593.796 453.203 594.887 453.531 596.007 453.57L598.73 456.737 602.562 456.737 598.667 453.253C599.978 452.86 601.103 452.005 601.833 450.847ZM598.667 450.055C598.082 450.781 597.191 451.191 596.26 451.163 595.321 451.194 594.425 450.769 593.853 450.023 593.184 449.109 592.859 447.987 592.935 446.857 592.862 445.726 593.186 444.606 593.853 443.69 594.457 442.946 595.365 442.515 596.323 442.518 597.263 442.478 598.159 442.92 598.698 443.69 599.322 444.624 599.623 445.736 599.553 446.857 599.664 447.996 599.348 449.135 598.667 450.055Z" fill="url(#fill10)"/></g></g></g><g clip-path="url(#clip11)"><g clip-path="url(#clip12)"><g clip-path="url(#clip13)"><path d="M594.24 555.396 596.52 555.396 596.52 575.764 594.24 575.764Z" fill="#7A7A7A"/><path d="M599.484 575.46C599.484 577.688 597.608 579.564 595.38 579.564 593.152 579.564 591.276 577.688 591.276 575.46 591.276 573.232 593.152 571.356 595.38 571.356 597.608 571.356 599.484 573.232 599.484 575.46Z" fill="#57A300"/><path d="M598.724 554.94C598.724 556.756 597.196 558.284 595.38 558.284 593.564 558.284 592.036 556.756 592.036 554.94 592.036 553.124 593.564 551.596 595.38 551.596 597.196 551.596 598.724 553.124 598.724 554.94ZM603.379 585.717C603.099 585.72 602.83 585.611 602.631 585.414 602.193 584.975 602.193 584.265 602.631 583.825L610.66 575.795C610.915 575.542 610.917 575.13 610.664 574.875 610.663 574.874 610.662 574.873 610.661 574.872L602.77 567.123C602.555 566.945 602.425 566.684 602.414 566.405 602.399 566.093 602.527 565.775 602.769 565.531 602.997 565.294 603.32 565.173 603.647 565.203 603.928 565.203 604.196 565.32 604.407 565.531L611.943 572.858 613.623 574.537C613.963 574.961 614.082 575.667 613.623 576.127L611.807 577.943 604.266 585.414C604.058 585.612 603.782 585.722 603.495 585.72L603.498 585.72 603.379 585.717ZM587.27 585.717C586.984 585.72 586.708 585.611 586.501 585.414L578.821 578.014 577.136 576.117C576.683 575.665 576.794 574.977 577.127 574.557L578.821 572.861 586.363 565.528C586.59 565.293 586.912 565.173 587.238 565.203 587.517 565.203 587.783 565.32 587.997 565.531 588.238 565.772 588.367 566.091 588.353 566.404 588.338 566.69 588.202 566.956 587.981 567.137L580.248 574.872C579.992 575.123 579.989 575.533 580.24 575.789 580.242 575.791 580.245 575.793 580.247 575.795L588.139 583.824C588.574 584.264 588.573 584.973 588.138 585.413 587.94 585.611 587.674 585.719 587.388 585.72L587.27 585.717Z" fill="#3999C6"/></g></g></g><path d="M769.526 400.417C769.526 399.356 769.526 397.233 769.526 397.233 769.526 356.902 733.381 324 690.239 324 662.255 324 637.769 337.798 623.777 356.902 616.781 353.718 609.785 351.595 601.623 351.595 592.296 351.595 582.968 353.718 575.972 357.963 564.312 365.393 556.15 378.129 554.984 391.926 538.66 402.54 527 420.583 527 439.687 527 469.405 551.486 493.816 582.968 497 584.134 497 587.632 497 589.964 497 591.13 497 593.462 497 595.794 497 624.943 497 693.737 497 725.219 497 726.385 497 727.551 497 728.717 497 731.049 497 731.049 497 731.049 497 733.381 497 738.045 497 741.542 497 761.364 497 761.364 497 761.364 497 791.68 497 815 474.712 815 448.178 815 423.767 795.178 403.601 769.526 400.417Z" stroke="#000041" stroke-width="2" stroke-miterlimit="8" fill="none" fill-rule="evenodd"/><g clip-path="url(#clip14)"><g clip-path="url(#clip15)"><g clip-path="url(#clip16)"><path d="M507.078 621.986C507.078 622.911 506.328 623.661 505.402 623.661 504.477 623.661 503.727 622.911 503.727 621.986 503.727 621.06 504.477 620.31 505.402 620.31 506.328 620.31 507.078 621.06 507.078 621.986Z" fill="url(#fill17)"/><path d="M501.733 622C501.733 622.925 500.983 623.676 500.058 623.676 499.132 623.676 498.382 622.925 498.382 622 498.382 621.075 499.132 620.324 500.058 620.324 500.983 620.324 501.733 621.075 501.733 622Z" fill="url(#fill18)"/><path d="M496.389 622C496.389 622.925 495.639 623.676 494.713 623.676 493.788 623.676 493.038 622.925 493.038 622 493.038 621.075 493.788 620.324 494.713 620.324 495.639 620.324 496.389 621.075 496.389 622Z" fill="url(#fill19)"/><path d="M495.93 628.699 494.971 629.66C494.802 629.83 494.528 629.83 494.358 629.661L487.26 622.583C486.921 622.245 486.92 621.696 487.258 621.357L488.217 620.396 488.217 620.396 495.929 628.086C496.098 628.255 496.099 628.529 495.93 628.699Z" fill="#50E6FF"/><path d="M494.826 614.356 495.787 615.315C495.957 615.484 495.957 615.758 495.788 615.928L488.21 623.527 488.21 623.527 487.249 622.569C486.91 622.231 486.909 621.682 487.247 621.343L494.213 614.357C494.382 614.188 494.656 614.187 494.826 614.356Z" fill="#1490DF"/><path d="M511.782 620.382 512.741 621.344C513.079 621.683 513.078 622.231 512.739 622.569L505.641 629.648C505.471 629.817 505.197 629.816 505.028 629.647L504.069 628.686C503.9 628.516 503.9 628.242 504.07 628.073L511.782 620.382 511.782 620.382Z" fill="#50E6FF"/><path d="M512.738 622.559 511.776 623.518 511.776 623.518 504.198 615.918C504.029 615.749 504.029 615.475 504.199 615.306L505.17 614.337C505.34 614.168 505.614 614.168 505.783 614.338L512.75 621.323C513.088 621.662 513.087 622.211 512.748 622.549Z" fill="#1490DF"/></g></g></g><rect x="686" y="531" width="154" height="76" stroke="#000000" stroke-width="2" stroke-linecap="round" stroke-miterlimit="8" stroke-dasharray="0 4" fill="none"/><rect x="501" y="531" width="154" height="76" stroke="#000000" stroke-width="2" stroke-linecap="round" stroke-miterlimit="8" stroke-dasharray="0 4" fill="none"/><rect x="513" y="598" width="29" height="19" fill="#FFFFFF"/><g clip-path="url(#clip20)"><g clip-path="url(#clip21)"><g clip-path="url(#clip22)"><path d="M536.886 607.766C537.076 607.576 537.038 607.272 536.886 607.082L535.974 606.17 531.87 602.18C531.68 601.99 531.414 601.99 531.224 602.18 531.034 602.37 530.996 602.674 531.224 602.864L535.518 607.082C535.708 607.272 535.708 607.576 535.518 607.766L531.148 612.136C530.958 612.326 530.958 612.63 531.148 612.82 531.338 613.01 531.642 612.972 531.794 612.82L535.86 608.792 535.898 608.754 536.886 607.766ZM518.114 607.766C517.924 607.576 517.962 607.272 518.114 607.082L519.026 606.17 523.13 602.18C523.32 601.99 523.586 601.99 523.776 602.18 523.966 602.37 524.004 602.674 523.776 602.864L519.558 607.082C519.368 607.272 519.368 607.576 519.558 607.766L523.852 612.136C524.042 612.326 524.042 612.63 523.852 612.82 523.662 613.01 523.358 612.972 523.206 612.82L519.064 608.83 519.026 608.792 518.114 607.766Z" fill="#3999C6"/><path d="M528.792 607.424C528.792 608.146 528.184 608.678 527.538 608.678 526.892 608.678 526.208 608.07 526.208 607.424 526.208 606.778 526.74 606.17 527.538 606.17 528.298 606.17 528.792 606.778 528.792 607.424Z" fill="#57A300"/></g></g></g><rect x="692" y="598" width="29" height="19" fill="#FFFFFF"/><g clip-path="url(#clip23)"><g clip-path="url(#clip24)"><g clip-path="url(#clip25)"><path d="M714.886 607.766C715.076 607.576 715.038 607.272 714.886 607.082L713.974 606.17 709.87 602.18C709.68 601.99 709.414 601.99 709.224 602.18 709.034 602.37 708.996 602.674 709.224 602.864L713.518 607.082C713.708 607.272 713.708 607.576 713.518 607.766L709.148 612.136C708.958 612.326 708.958 612.63 709.148 612.82 709.338 613.01 709.642 612.972 709.794 612.82L713.86 608.792 713.898 608.754 714.886 607.766ZM696.114 607.766C695.924 607.576 695.962 607.272 696.114 607.082L697.026 606.17 701.13 602.18C701.32 601.99 701.586 601.99 701.776 602.18 701.966 602.37 702.004 602.674 701.776 602.864L697.558 607.082C697.368 607.272 697.368 607.576 697.558 607.766L701.852 612.136C702.042 612.326 702.042 612.63 701.852 612.82 701.662 613.01 701.358 612.972 701.206 612.82L697.064 608.83 697.026 608.792 696.114 607.766Z" fill="#3999C6"/><path d="M706.792 607.424C706.792 608.146 706.184 608.678 705.538 608.678 704.892 608.678 704.208 608.07 704.208 607.424 704.208 606.778 704.74 606.17 705.538 606.17 706.298 606.17 706.792 606.778 706.792 607.424Z" fill="#57A300"/></g></g></g><g clip-path="url(#clip26)"><g clip-path="url(#clip27)"><g clip-path="url(#clip28)"><path d="M764.546 555.143 767.227 555.143C767.623 555.143 767.944 555.465 767.944 555.861L767.944 563.25C767.944 563.646 767.623 563.968 767.227 563.968L764.546 563.968 764.546 555.143ZM764.546 568 767.227 568C767.623 568 767.944 568.321 767.944 568.718L767.944 581.089C767.944 581.485 767.623 581.807 767.227 581.807L764.546 581.807 764.546 568Z" fill="#FFCA00"/><path d="M763.089 552.167C763.893 552.167 764.546 552.819 764.546 553.623L764.546 582.377C764.546 583.181 763.893 583.833 763.089 583.833L736.953 583.833C736.149 583.833 735.497 583.181 735.497 582.377L735.497 553.623C735.497 552.819 736.149 552.167 736.953 552.167Z" fill="url(#fill29)"/><path d="M743.456 576.233 741.957 576.233C741.724 576.222 741.544 576.024 741.555 575.791 741.556 575.791 741.556 575.79 741.556 575.79L741.556 558.162C741.544 557.941 741.714 557.752 741.935 557.741 741.942 557.74 741.949 557.74 741.957 557.74L746.031 557.74C746.253 557.74 746.432 557.919 746.433 558.141 746.433 558.148 746.433 558.155 746.432 558.162 746.444 558.395 746.265 558.594 746.032 558.606 746.032 558.606 746.031 558.606 746.031 558.606L742.358 558.606 742.358 575.347 743.456 575.347C743.688 575.358 743.868 575.556 743.857 575.789 743.857 575.789 743.857 575.79 743.857 575.79 743.858 576.019 743.684 576.211 743.456 576.233Z" fill="#B4EC36"/><path d="M743.667 578.387 740.289 578.387C740.056 578.375 739.876 578.177 739.888 577.944 739.888 577.944 739.888 577.944 739.888 577.943L739.613 556.136C739.609 556.017 739.655 555.902 739.74 555.819 739.806 555.736 739.908 555.689 740.014 555.692L746.031 555.692 746.031 556.558 740.437 556.558 740.69 577.5 743.667 577.5ZM756.333 576.444 752.977 576.444C752.862 576.44 752.754 576.386 752.681 576.297 752.597 576.222 752.551 576.114 752.554 576.001L752.554 565.678C752.543 565.457 752.713 565.268 752.934 565.256 752.941 565.256 752.948 565.256 752.956 565.256L754.877 565.256 754.877 560.506 755.679 560.506 755.679 565.657C755.691 565.882 755.524 566.078 755.299 566.1L753.378 566.1 753.378 575.431 756.333 575.431Z" fill="#B4EC36"/><path d="M758.339 553.834C758.642 553.834 758.888 554.08 758.888 554.383L758.888 559.851C758.888 560.154 758.642 560.4 758.339 560.4L746.474 560.4C746.171 560.4 745.926 560.154 745.926 559.851L745.926 554.383C745.926 554.08 746.171 553.834 746.474 553.834Z" fill="#365615"/><path d="M749.683 581.574C749.683 581.878 749.438 582.123 749.134 582.123L747.931 582.123C747.628 582.123 747.382 581.878 747.382 581.574L747.382 572.328C747.382 572.025 747.628 571.779 747.931 571.779L749.134 571.779C749.438 571.779 749.683 572.025 749.683 572.328Z" fill="#365615"/><path d="M745.757 581.617C745.757 581.92 745.511 582.166 745.208 582.166L744.004 582.166C743.701 582.166 743.456 581.92 743.456 581.617L743.456 572.37C743.456 572.067 743.701 571.821 744.004 571.821L745.208 571.821C745.511 571.821 745.757 572.067 745.757 572.37Z" fill="#365615"/><path d="M758.381 581.617C758.381 581.92 758.135 582.166 757.832 582.166L756.629 582.166C756.326 582.166 756.08 581.92 756.08 581.617L756.08 572.37C756.08 572.067 756.326 571.821 756.629 571.821L757.832 571.821C758.135 571.821 758.381 572.067 758.381 572.37Z" fill="#F2F2F2"/><path d="M750.317 566.016C750.317 567.321 749.334 568.38 748.121 568.38 746.909 568.38 745.926 567.321 745.926 566.016 745.926 564.71 746.909 563.651 748.121 563.651 749.334 563.651 750.317 564.71 750.317 566.016Z" fill="#F2F2F2"/><path d="M735.454 574.861 732.773 574.861C732.408 574.864 732.099 574.591 732.056 574.228L732.056 561.857C732.056 561.46 732.377 561.139 732.773 561.139L735.454 561.139 735.454 574.861Z" fill="#3B3B3B"/></g></g></g><path d="M596 545.2 596 479.56 598 479.56 598 545.2ZM589.565 486.92 597 477.998 604.435 486.92C604.788 487.344 604.731 487.975 604.307 488.328 603.883 488.682 603.252 488.624 602.898 488.2L596.232 480.2 597.768 480.2 591.101 488.2C590.748 488.624 590.117 488.682 589.693 488.328 589.269 487.975 589.211 487.344 589.565 486.92Z"/><path d="M751 477 751 542.64 749 542.64 749 477ZM757.435 535.28 750 544.202 742.565 535.28C742.212 534.856 742.269 534.225 742.693 533.872 743.117 533.518 743.748 533.576 744.102 534L750.768 542 749.232 542 755.899 534C756.252 533.576 756.883 533.518 757.307 533.872 757.731 534.225 757.789 534.856 757.435 535.28Z"/><path d="M719 572 624.56 572 624.56 570 719 570ZM631.92 578.435 622.998 571 631.92 563.565C632.344 563.211 632.975 563.269 633.328 563.693 633.682 564.117 633.624 564.748 633.2 565.101L625.2 571.768 625.2 570.232 633.2 576.898C633.624 577.252 633.682 577.883 633.328 578.307 632.975 578.731 632.344 578.788 631.92 578.435Z"/></g></svg>